<mxfile host="app.diagrams.net" modified="2023-08-29T20:50:49.653Z" agent="Mozilla/5.0 (Windows NT 10.0; Win64; x64) AppleWebKit/537.36 (KHTML, like Gecko) Chrome/116.0.0.0 Safari/537.36" etag="cHzTzwfLs5RwP-s3W0x1" version="21.7.0" type="device">
  <diagram id="C5RBs43oDa-KdzZeNtuy" name="Page-1">
    <mxGraphModel dx="1947" dy="438" grid="1" gridSize="10" guides="1" tooltips="1" connect="1" arrows="1" fold="1" page="1" pageScale="1" pageWidth="827" pageHeight="1169" math="0" shadow="0">
      <root>
        <mxCell id="WIyWlLk6GJQsqaUBKTNV-0" />
        <mxCell id="WIyWlLk6GJQsqaUBKTNV-1" parent="WIyWlLk6GJQsqaUBKTNV-0" />
        <mxCell id="K3KjiJS-RZX1q9UFe2Zl-24" value="" style="whiteSpace=wrap;html=1;aspect=fixed;" vertex="1" parent="WIyWlLk6GJQsqaUBKTNV-1">
          <mxGeometry x="-110" y="180" width="1310" height="1310" as="geometry" />
        </mxCell>
        <mxCell id="K3KjiJS-RZX1q9UFe2Zl-26" value="CLT" style="swimlane;fontStyle=0;align=center;verticalAlign=top;childLayout=stackLayout;horizontal=1;startSize=26;horizontalStack=0;resizeParent=1;resizeLast=0;collapsible=1;marginBottom=0;rounded=0;shadow=0;strokeWidth=1;" vertex="1" parent="WIyWlLk6GJQsqaUBKTNV-1">
          <mxGeometry x="110" y="740" width="310" height="132" as="geometry">
            <mxRectangle x="200" y="740" width="160" height="26" as="alternateBounds" />
          </mxGeometry>
        </mxCell>
        <mxCell id="K3KjiJS-RZX1q9UFe2Zl-27" value="- Salary: Enum" style="text;align=left;verticalAlign=top;spacingLeft=4;spacingRight=4;overflow=hidden;rotatable=0;points=[[0,0.5],[1,0.5]];portConstraint=eastwest;rounded=0;shadow=0;html=0;" vertex="1" parent="K3KjiJS-RZX1q9UFe2Zl-26">
          <mxGeometry y="26" width="310" height="26" as="geometry" />
        </mxCell>
        <mxCell id="K3KjiJS-RZX1q9UFe2Zl-28" value="- TrustPosition: bool" style="text;align=left;verticalAlign=top;spacingLeft=4;spacingRight=4;overflow=hidden;rotatable=0;points=[[0,0.5],[1,0.5]];portConstraint=eastwest;rounded=0;shadow=0;html=0;" vertex="1" parent="K3KjiJS-RZX1q9UFe2Zl-26">
          <mxGeometry y="52" width="310" height="20" as="geometry" />
        </mxCell>
        <mxCell id="K3KjiJS-RZX1q9UFe2Zl-29" value="" style="line;html=1;strokeWidth=1;align=left;verticalAlign=middle;spacingTop=-1;spacingLeft=3;spacingRight=3;rotatable=0;labelPosition=right;points=[];portConstraint=eastwest;" vertex="1" parent="K3KjiJS-RZX1q9UFe2Zl-26">
          <mxGeometry y="72" width="310" height="8" as="geometry" />
        </mxCell>
        <mxCell id="K3KjiJS-RZX1q9UFe2Zl-30" value="+ CalcPerMonthlyCost():decimal" style="text;align=left;verticalAlign=top;spacingLeft=4;spacingRight=4;overflow=hidden;rotatable=0;points=[[0,0.5],[1,0.5]];portConstraint=eastwest;" vertex="1" parent="K3KjiJS-RZX1q9UFe2Zl-26">
          <mxGeometry y="80" width="310" height="26" as="geometry" />
        </mxCell>
        <mxCell id="K3KjiJS-RZX1q9UFe2Zl-31" value="+ AddPercent(decimal increasePercent):decimal" style="text;align=left;verticalAlign=top;spacingLeft=4;spacingRight=4;overflow=hidden;rotatable=0;points=[[0,0.5],[1,0.5]];portConstraint=eastwest;" vertex="1" parent="K3KjiJS-RZX1q9UFe2Zl-26">
          <mxGeometry y="106" width="310" height="26" as="geometry" />
        </mxCell>
        <mxCell id="K3KjiJS-RZX1q9UFe2Zl-33" value="PJ" style="swimlane;fontStyle=0;align=center;verticalAlign=top;childLayout=stackLayout;horizontal=1;startSize=26;horizontalStack=0;resizeParent=1;resizeLast=0;collapsible=1;marginBottom=0;rounded=0;shadow=0;strokeWidth=1;" vertex="1" parent="WIyWlLk6GJQsqaUBKTNV-1">
          <mxGeometry x="440" y="740" width="300" height="164" as="geometry">
            <mxRectangle x="530" y="740" width="160" height="26" as="alternateBounds" />
          </mxGeometry>
        </mxCell>
        <mxCell id="K3KjiJS-RZX1q9UFe2Zl-34" value="- HourValue: int" style="text;align=left;verticalAlign=top;spacingLeft=4;spacingRight=4;overflow=hidden;rotatable=0;points=[[0,0.5],[1,0.5]];portConstraint=eastwest;rounded=0;shadow=0;html=0;" vertex="1" parent="K3KjiJS-RZX1q9UFe2Zl-33">
          <mxGeometry y="26" width="300" height="26" as="geometry" />
        </mxCell>
        <mxCell id="K3KjiJS-RZX1q9UFe2Zl-35" value="- ContractedHours: int" style="text;align=left;verticalAlign=top;spacingLeft=4;spacingRight=4;overflow=hidden;rotatable=0;points=[[0,0.5],[1,0.5]];portConstraint=eastwest;rounded=0;shadow=0;html=0;" vertex="1" parent="K3KjiJS-RZX1q9UFe2Zl-33">
          <mxGeometry y="52" width="300" height="26" as="geometry" />
        </mxCell>
        <mxCell id="K3KjiJS-RZX1q9UFe2Zl-36" value="- CompanyCnpj: string" style="text;align=left;verticalAlign=top;spacingLeft=4;spacingRight=4;overflow=hidden;rotatable=0;points=[[0,0.5],[1,0.5]];portConstraint=eastwest;rounded=0;shadow=0;html=0;" vertex="1" parent="K3KjiJS-RZX1q9UFe2Zl-33">
          <mxGeometry y="78" width="300" height="26" as="geometry" />
        </mxCell>
        <mxCell id="K3KjiJS-RZX1q9UFe2Zl-37" value="" style="line;html=1;strokeWidth=1;align=left;verticalAlign=middle;spacingTop=-1;spacingLeft=3;spacingRight=3;rotatable=0;labelPosition=right;points=[];portConstraint=eastwest;" vertex="1" parent="K3KjiJS-RZX1q9UFe2Zl-33">
          <mxGeometry y="104" width="300" height="8" as="geometry" />
        </mxCell>
        <mxCell id="K3KjiJS-RZX1q9UFe2Zl-38" value="+ CalcPerMonthlyCost():decimal" style="text;align=left;verticalAlign=top;spacingLeft=4;spacingRight=4;overflow=hidden;rotatable=0;points=[[0,0.5],[1,0.5]];portConstraint=eastwest;" vertex="1" parent="K3KjiJS-RZX1q9UFe2Zl-33">
          <mxGeometry y="112" width="300" height="26" as="geometry" />
        </mxCell>
        <mxCell id="K3KjiJS-RZX1q9UFe2Zl-39" value="+ AddPercent(decimal increasePercent):decimal" style="text;align=left;verticalAlign=top;spacingLeft=4;spacingRight=4;overflow=hidden;rotatable=0;points=[[0,0.5],[1,0.5]];portConstraint=eastwest;" vertex="1" parent="K3KjiJS-RZX1q9UFe2Zl-33">
          <mxGeometry y="138" width="300" height="26" as="geometry" />
        </mxCell>
        <mxCell id="K3KjiJS-RZX1q9UFe2Zl-40" value="Employee" style="swimlane;fontStyle=0;align=center;verticalAlign=top;childLayout=stackLayout;horizontal=1;startSize=26;horizontalStack=0;resizeParent=1;resizeLast=0;collapsible=1;marginBottom=0;rounded=0;shadow=0;strokeWidth=1;" vertex="1" parent="WIyWlLk6GJQsqaUBKTNV-1">
          <mxGeometry x="250" y="440" width="350" height="190" as="geometry">
            <mxRectangle x="550" y="140" width="160" height="26" as="alternateBounds" />
          </mxGeometry>
        </mxCell>
        <mxCell id="K3KjiJS-RZX1q9UFe2Zl-41" value="- Registro: int" style="text;align=left;verticalAlign=top;spacingLeft=4;spacingRight=4;overflow=hidden;rotatable=0;points=[[0,0.5],[1,0.5]];portConstraint=eastwest;" vertex="1" parent="K3KjiJS-RZX1q9UFe2Zl-40">
          <mxGeometry y="26" width="350" height="26" as="geometry" />
        </mxCell>
        <mxCell id="K3KjiJS-RZX1q9UFe2Zl-42" value="- Name: string" style="text;align=left;verticalAlign=top;spacingLeft=4;spacingRight=4;overflow=hidden;rotatable=0;points=[[0,0.5],[1,0.5]];portConstraint=eastwest;rounded=0;shadow=0;html=0;" vertex="1" parent="K3KjiJS-RZX1q9UFe2Zl-40">
          <mxGeometry y="52" width="350" height="26" as="geometry" />
        </mxCell>
        <mxCell id="K3KjiJS-RZX1q9UFe2Zl-43" value="- Gender: enum" style="text;align=left;verticalAlign=top;spacingLeft=4;spacingRight=4;overflow=hidden;rotatable=0;points=[[0,0.5],[1,0.5]];portConstraint=eastwest;rounded=0;shadow=0;html=0;" vertex="1" parent="K3KjiJS-RZX1q9UFe2Zl-40">
          <mxGeometry y="78" width="350" height="26" as="geometry" />
        </mxCell>
        <mxCell id="K3KjiJS-RZX1q9UFe2Zl-44" value="- EmployeeType: enum" style="text;align=left;verticalAlign=top;spacingLeft=4;spacingRight=4;overflow=hidden;rotatable=0;points=[[0,0.5],[1,0.5]];portConstraint=eastwest;rounded=0;shadow=0;html=0;" vertex="1" parent="K3KjiJS-RZX1q9UFe2Zl-40">
          <mxGeometry y="104" width="350" height="26" as="geometry" />
        </mxCell>
        <mxCell id="K3KjiJS-RZX1q9UFe2Zl-45" value="" style="line;html=1;strokeWidth=1;align=left;verticalAlign=middle;spacingTop=-1;spacingLeft=3;spacingRight=3;rotatable=0;labelPosition=right;points=[];portConstraint=eastwest;" vertex="1" parent="K3KjiJS-RZX1q9UFe2Zl-40">
          <mxGeometry y="130" width="350" height="8" as="geometry" />
        </mxCell>
        <mxCell id="K3KjiJS-RZX1q9UFe2Zl-46" value="+ public abstract decimal CalcPerMonth();" style="text;align=left;verticalAlign=top;spacingLeft=4;spacingRight=4;overflow=hidden;rotatable=0;points=[[0,0.5],[1,0.5]];portConstraint=eastwest;" vertex="1" parent="K3KjiJS-RZX1q9UFe2Zl-40">
          <mxGeometry y="138" width="350" height="26" as="geometry" />
        </mxCell>
        <mxCell id="K3KjiJS-RZX1q9UFe2Zl-47" value="+ public abstract decimal AddPercent(decimal increasePercent);" style="text;align=left;verticalAlign=top;spacingLeft=4;spacingRight=4;overflow=hidden;rotatable=0;points=[[0,0.5],[1,0.5]];portConstraint=eastwest;" vertex="1" parent="K3KjiJS-RZX1q9UFe2Zl-40">
          <mxGeometry y="164" width="350" height="26" as="geometry" />
        </mxCell>
        <mxCell id="K3KjiJS-RZX1q9UFe2Zl-48" value="&lt;&lt;enum&gt;&gt;EmployeeType" style="swimlane;fontStyle=0;align=center;verticalAlign=top;childLayout=stackLayout;horizontal=1;startSize=26;horizontalStack=0;resizeParent=1;resizeLast=0;collapsible=1;marginBottom=0;rounded=0;shadow=0;strokeWidth=1;" vertex="1" parent="WIyWlLk6GJQsqaUBKTNV-1">
          <mxGeometry x="667" y="570" width="160" height="80" as="geometry">
            <mxRectangle x="550" y="140" width="160" height="26" as="alternateBounds" />
          </mxGeometry>
        </mxCell>
        <mxCell id="K3KjiJS-RZX1q9UFe2Zl-49" value="Clt" style="text;align=left;verticalAlign=top;spacingLeft=4;spacingRight=4;overflow=hidden;rotatable=0;points=[[0,0.5],[1,0.5]];portConstraint=eastwest;rounded=0;shadow=0;html=0;" vertex="1" parent="K3KjiJS-RZX1q9UFe2Zl-48">
          <mxGeometry y="26" width="160" height="26" as="geometry" />
        </mxCell>
        <mxCell id="K3KjiJS-RZX1q9UFe2Zl-50" value="Pj" style="text;align=left;verticalAlign=top;spacingLeft=4;spacingRight=4;overflow=hidden;rotatable=0;points=[[0,0.5],[1,0.5]];portConstraint=eastwest;rounded=0;shadow=0;html=0;" vertex="1" parent="K3KjiJS-RZX1q9UFe2Zl-48">
          <mxGeometry y="52" width="160" height="26" as="geometry" />
        </mxCell>
        <mxCell id="K3KjiJS-RZX1q9UFe2Zl-51" value="&lt;&lt;enum&gt;&gt;Gender" style="swimlane;fontStyle=0;align=center;verticalAlign=top;childLayout=stackLayout;horizontal=1;startSize=26;horizontalStack=0;resizeParent=1;resizeLast=0;collapsible=1;marginBottom=0;rounded=0;shadow=0;strokeWidth=1;" vertex="1" parent="WIyWlLk6GJQsqaUBKTNV-1">
          <mxGeometry x="667" y="440" width="160" height="104" as="geometry">
            <mxRectangle x="667" y="580" width="160" height="26" as="alternateBounds" />
          </mxGeometry>
        </mxCell>
        <mxCell id="K3KjiJS-RZX1q9UFe2Zl-52" value="Male" style="text;align=left;verticalAlign=top;spacingLeft=4;spacingRight=4;overflow=hidden;rotatable=0;points=[[0,0.5],[1,0.5]];portConstraint=eastwest;rounded=0;shadow=0;html=0;" vertex="1" parent="K3KjiJS-RZX1q9UFe2Zl-51">
          <mxGeometry y="26" width="160" height="26" as="geometry" />
        </mxCell>
        <mxCell id="K3KjiJS-RZX1q9UFe2Zl-53" value="Female" style="text;align=left;verticalAlign=top;spacingLeft=4;spacingRight=4;overflow=hidden;rotatable=0;points=[[0,0.5],[1,0.5]];portConstraint=eastwest;rounded=0;shadow=0;html=0;" vertex="1" parent="K3KjiJS-RZX1q9UFe2Zl-51">
          <mxGeometry y="52" width="160" height="26" as="geometry" />
        </mxCell>
        <mxCell id="K3KjiJS-RZX1q9UFe2Zl-54" value="NonBinary" style="text;align=left;verticalAlign=top;spacingLeft=4;spacingRight=4;overflow=hidden;rotatable=0;points=[[0,0.5],[1,0.5]];portConstraint=eastwest;rounded=0;shadow=0;html=0;" vertex="1" parent="K3KjiJS-RZX1q9UFe2Zl-51">
          <mxGeometry y="78" width="160" height="26" as="geometry" />
        </mxCell>
        <mxCell id="K3KjiJS-RZX1q9UFe2Zl-61" value="" style="endArrow=block;endSize=16;endFill=0;html=1;rounded=0;entryX=0.473;entryY=1.016;entryDx=0;entryDy=0;entryPerimeter=0;exitX=0.5;exitY=0;exitDx=0;exitDy=0;" edge="1" parent="WIyWlLk6GJQsqaUBKTNV-1" source="K3KjiJS-RZX1q9UFe2Zl-26" target="K3KjiJS-RZX1q9UFe2Zl-47">
          <mxGeometry width="160" relative="1" as="geometry">
            <mxPoint x="110" y="660" as="sourcePoint" />
            <mxPoint x="270" y="660" as="targetPoint" />
            <Array as="points">
              <mxPoint x="265" y="700" />
              <mxPoint x="416" y="700" />
            </Array>
          </mxGeometry>
        </mxCell>
        <mxCell id="K3KjiJS-RZX1q9UFe2Zl-64" value="" style="endArrow=block;endSize=16;endFill=0;html=1;rounded=0;entryX=0.541;entryY=1.038;entryDx=0;entryDy=0;entryPerimeter=0;exitX=0.5;exitY=0;exitDx=0;exitDy=0;" edge="1" parent="WIyWlLk6GJQsqaUBKTNV-1" source="K3KjiJS-RZX1q9UFe2Zl-33" target="K3KjiJS-RZX1q9UFe2Zl-47">
          <mxGeometry width="160" relative="1" as="geometry">
            <mxPoint x="275" y="750" as="sourcePoint" />
            <mxPoint x="426" y="640" as="targetPoint" />
            <Array as="points">
              <mxPoint x="590" y="700" />
              <mxPoint x="440" y="700" />
            </Array>
          </mxGeometry>
        </mxCell>
        <mxCell id="K3KjiJS-RZX1q9UFe2Zl-66" value="" style="endArrow=open;endFill=1;endSize=12;html=1;rounded=0;exitX=1.001;exitY=0.088;exitDx=0;exitDy=0;exitPerimeter=0;entryX=-0.011;entryY=0.185;entryDx=0;entryDy=0;entryPerimeter=0;" edge="1" parent="WIyWlLk6GJQsqaUBKTNV-1" source="K3KjiJS-RZX1q9UFe2Zl-40" target="K3KjiJS-RZX1q9UFe2Zl-48">
          <mxGeometry width="160" relative="1" as="geometry">
            <mxPoint x="610" y="460" as="sourcePoint" />
            <mxPoint x="650" y="600" as="targetPoint" />
            <Array as="points">
              <mxPoint x="630" y="457" />
              <mxPoint x="630" y="585" />
            </Array>
          </mxGeometry>
        </mxCell>
        <mxCell id="K3KjiJS-RZX1q9UFe2Zl-68" value="" style="endArrow=open;endFill=1;endSize=12;html=1;rounded=0;entryX=0;entryY=0.1;entryDx=0;entryDy=0;entryPerimeter=0;" edge="1" parent="WIyWlLk6GJQsqaUBKTNV-1" target="K3KjiJS-RZX1q9UFe2Zl-51">
          <mxGeometry width="160" relative="1" as="geometry">
            <mxPoint x="600" y="450" as="sourcePoint" />
            <mxPoint x="640" y="450" as="targetPoint" />
          </mxGeometry>
        </mxCell>
      </root>
    </mxGraphModel>
  </diagram>
</mxfile>
